<?xml version="1.0" encoding="UTF-8"?>
<svg id="_レイヤー_2" data-name="レイヤー 2" xmlns="http://www.w3.org/2000/svg" viewBox="0 0 228.3 129.57">
  <defs>
    <style>
      .cls-1 {
        fill: #fff;
      }
    </style>
  </defs>
  <g id="_レイヤー_1-2" data-name="レイヤー 1">
    <path class="cls-1" d="M197.88,47.87c-4.43-18.22-20.85-31.76-40.43-31.76-14.69,0-27.59,7.62-35,19.11C119.37,15.27,102.13,0,81.32,0c-22.99,0-41.62,18.63-41.62,41.62,0,.57,.02,1.13,.04,1.69C17.63,44.29,0,62.52,0,84.88s18.63,41.62,41.62,41.62c.03,0,.05,0,.08,0,.31,0,.61,.02,.92,.02,.03,0,.05,0,.08,0,.31,0,.61,.02,.92,.02,.03,0,.05,0,.08,0,.31,0,.61,.02,.92,.02,.03,0,.05,0,.08,0,.31,0,.61,.02,.92,.02,.03,0,.05,0,.08,0,.31,0,.61,.02,.92,.02,.03,0,.05,0,.08,0,.31,0,.61,.02,.92,.02,.03,0,.05,0,.08,0,.31,0,.61,.02,.92,.02,.03,0,.05,0,.08,0,.31,0,.61,.02,.92,.02,.03,0,.05,0,.08,0,.31,0,.61,.02,.92,.02,.03,0,.05,0,.08,0,.31,0,.61,.02,.92,.02,.03,0,.05,0,.08,0,.31,0,.61,.02,.92,.02,.03,0,.05,0,.08,0,.31,0,.61,.02,.92,.02,.03,0,.05,0,.08,0,.31,0,.61,.02,.92,.02,.03,0,.05,0,.08,0,.31,0,.61,.02,.92,.02,.03,0,.05,0,.08,0,.31,0,.61,.02,.92,.02,.03,0,.05,0,.08,0,.31,0,.61,.02,.92,.02,.03,0,.05,0,.08,0,.31,0,.61,.02,.92,.02,.03,0,.05,0,.08,0,.31,0,.61,.02,.92,.02,.03,0,.05,0,.08,0,.31,0,.61,.02,.92,.02,.03,0,.05,0,.08,0,.31,0,.61,.02,.92,.02,.03,0,.05,0,.08,0,.31,0,.61,.02,.92,.02,.03,0,.05,0,.08,0,.31,0,.61,.02,.92,.02,.03,0,.05,0,.08,0,.31,0,.61,.02,.92,.02,.03,0,.05,0,.08,0,.31,0,.61,.02,.92,.02,.03,0,.05,0,.08,0,.31,0,.61,.02,.92,.02,.03,0,.05,0,.08,0,.31,0,.61,.02,.92,.02,.03,0,.05,0,.08,0,.31,0,.61,.02,.92,.02,.03,0,.05,0,.08,0,.31,0,.61,.02,.92,.02,.03,0,.05,0,.08,0,.31,0,.61,.02,.92,.02,.03,0,.05,0,.08,0,.31,0,.61,.02,.92,.02,.03,0,.05,0,.08,0,.31,0,.61,.02,.92,.02,.03,0,.05,0,.08,0,.31,0,.61,.02,.92,.02,.03,0,.05,0,.08,0,.31,0,.61,.02,.92,.02,.03,0,.05,0,.08,0,.31,0,.61,.02,.92,.02,.03,0,.05,0,.08,0,.31,0,.61,.02,.92,.02,.03,0,.05,0,.08,0,.31,0,.61,.02,.92,.02,.03,0,.05,0,.08,0,.31,0,.61,.02,.92,.02,.03,0,.05,0,.08,0,.31,0,.61,.02,.92,.02,.03,0,.05,0,.08,0,.31,0,.61,.02,.92,.02,.03,0,.05,0,.08,0,.31,0,.61,.02,.92,.02,.03,0,.05,0,.08,0,.31,0,.61,.02,.92,.02,.03,0,.05,0,.08,0,.31,0,.61,.02,.92,.02,.03,0,.05,0,.08,0,.31,0,.61,.02,.92,.02,.03,0,.05,0,.08,0,.31,0,.61,.02,.92,.02,.03,0,.05,0,.08,0,.31,0,.61,.02,.92,.02,.03,0,.05,0,.08,0,.31,0,.61,.02,.92,.02,.03,0,.05,0,.08,0,.31,0,.61,.02,.92,.02,.03,0,.05,0,.08,0,.31,0,.61,.02,.92,.02,.03,0,.05,0,.08,0,.31,0,.61,.02,.92,.02,.03,0,.05,0,.08,0,.31,0,.61,.02,.92,.02,.03,0,.05,0,.08,0,.31,0,.61,.02,.92,.02,.03,0,.05,0,.08,0,.31,0,.61,.02,.92,.02,.03,0,.05,0,.08,0,.31,0,.61,.02,.92,.02,.03,0,.05,0,.08,0,.31,0,.61,.02,.92,.02,.03,0,.05,0,.08,0,.31,0,.61,.02,.92,.02,.03,0,.05,0,.08,0,.31,0,.61,.02,.92,.02,.03,0,.05,0,.08,0,.31,0,.61,.02,.92,.02,.03,0,.05,0,.08,0,.31,0,.61,.02,.92,.02,.03,0,.05,0,.08,0,.31,0,.61,.02,.92,.02,.03,0,.05,0,.08,0,.31,0,.61,.02,.92,.02,.03,0,.05,0,.08,0,.31,0,.61,.02,.92,.02,.03,0,.05,0,.08,0,.31,0,.61,.02,.92,.02,.03,0,.05,0,.08,0,.31,0,.61,.02,.92,.02,.03,0,.05,0,.08,0,.31,0,.61,.02,.92,.02,.03,0,.05,0,.08,0,.31,0,.61,.02,.92,.02,.03,0,.05,0,.08,0,.31,0,.61,.02,.92,.02,.03,0,.05,0,.08,0,.31,0,.61,.02,.92,.02,.03,0,.05,0,.08,0,.31,0,.61,.02,.92,.02,.03,0,.05,0,.08,0,.31,0,.61,.02,.92,.02,.03,0,.05,0,.08,0,.31,0,.61,.02,.92,.02,.03,0,.05,0,.08,0,.31,0,.61,.02,.92,.02,.03,0,.05,0,.08,0,.31,0,.61,.02,.92,.02,.03,0,.05,0,.08,0,.31,0,.61,.02,.92,.02,.03,0,.05,0,.08,0,.31,0,.61,.02,.92,.02,.03,0,.05,0,.08,0,.31,0,.61,.02,.92,.02,.03,0,.05,0,.08,0,.31,0,.61,.02,.92,.02,.03,0,.05,0,.08,0,.31,0,.61,.02,.92,.02,.03,0,.05,0,.08,0,.31,0,.61,.02,.92,.02,.03,0,.05,0,.08,0,.31,0,.61,.02,.92,.02,.03,0,.05,0,.08,0,.31,0,.61,.02,.92,.02,.03,0,.05,0,.08,0,.31,0,.61,.02,.92,.02,.03,0,.05,0,.08,0,.31,0,.61,.02,.92,.02,.03,0,.05,0,.08,0,.31,0,.61,.02,.92,.02,.03,0,.05,0,.08,0,.31,0,.61,.02,.92,.02,.03,0,.05,0,.08,0,.31,0,.61,.02,.92,.02,.03,0,.05,0,.08,0,.31,0,.61,.02,.92,.02,.03,0,.05,0,.08,0,.31,0,.61,.02,.92,.02,.03,0,.05,0,.08,0,.31,0,.61,.02,.92,.02,.03,0,.05,0,.08,0,.31,0,.61,.02,.92,.02,.03,0,.05,0,.08,0,.31,0,.61,.02,.92,.02,.03,0,.05,0,.08,0,.31,0,.61,.02,.92,.02,.03,0,.05,0,.08,0,.31,0,.61,.02,.92,.02,.03,0,.05,0,.08,0,.31,0,.61,.02,.92,.02,.03,0,.05,0,.08,0,.31,0,.61,.02,.92,.02,.03,0,.05,0,.08,0,.31,0,.61,.02,.92,.02,.03,0,.05,0,.08,0,.31,0,.61,.02,.92,.02,.03,0,.05,0,.08,0,.31,0,.61,.02,.92,.02,.03,0,.05,0,.08,0,.31,0,.61,.02,.92,.02,.03,0,.05,0,.08,0,.31,0,.61,.02,.92,.02,.03,0,.05,0,.08,0,.31,0,.61,.02,.92,.02,.03,0,.05,0,.08,0,.31,0,.61,.02,.92,.02,.03,0,.05,0,.08,0,.31,0,.61,.02,.92,.02,.03,0,.05,0,.08,0,.31,0,.61,.02,.92,.02,.03,0,.05,0,.08,0,.31,0,.61,.02,.92,.02,.03,0,.05,0,.08,0,.31,0,.61,.02,.92,.02,.03,0,.05,0,.08,0,.31,0,.61,.02,.92,.02,.03,0,.05,0,.08,0,.31,0,.61,.02,.92,.02,.03,0,.05,0,.08,0,.31,0,.61,.02,.92,.02,.03,0,.05,0,.08,0,.31,0,.61,.02,.92,.02,.03,0,.05,0,.08,0,.31,0,.61,.02,.92,.02,.03,0,.05,0,.08,0,.31,0,.61,.02,.92,.02,.03,0,.05,0,.08,0,.31,0,.61,.02,.92,.02,.03,0,.05,0,.08,0,.31,0,.61,.02,.92,.02,.03,0,.05,0,.08,0,.31,0,.61,.02,.92,.02,.03,0,.05,0,.08,0,.31,0,.61,.02,.92,.02,.03,0,.05,0,.08,0,.31,0,.61,.02,.92,.02,.03,0,.05,0,.08,0,.31,0,.61,.02,.92,.02,.03,0,.05,0,.08,0,.31,0,.61,.02,.92,.02,.03,0,.05,0,.08,0,.31,0,.61,.02,.92,.02,.03,0,.05,0,.08,0,.31,0,.61,.02,.92,.02,.03,0,.05,0,.08,0,.31,0,.61,.02,.92,.02,.03,0,.05,0,.08,0,.31,0,.61,.02,.92,.02,.03,0,.05,0,.08,0,.31,0,.61,.02,.92,.02,.03,0,.05,0,.08,0,.31,0,.61,.02,.92,.02,.03,0,.05,0,.08,0,.31,0,.61,.02,.92,.02,.03,0,.05,0,.08,0,.31,0,.61,.02,.92,.02,.03,0,.05,0,.08,0,.31,0,.61,.02,.92,.02,.03,0,.05,0,.08,0,.31,0,.61,.02,.92,.02,.03,0,.05,0,.08,0,.31,0,.61,.02,.92,.02,.03,0,.05,0,.08,0,.31,0,.61,.02,.92,.02,.03,0,.05,0,.08,0,.31,0,.61,.02,.92,.02,.03,0,.05,0,.08,0,.31,0,.61,.02,.92,.02,.03,0,.05,0,.08,0,.31,0,.61,.02,.92,.02,.03,0,.05,0,.08,0,.31,0,.61,.02,.92,.02,.03,0,.05,0,.08,0,.31,0,.61,.02,.92,.02,.03,0,.05,0,.08,0,.31,0,.61,.02,.92,.02,.03,0,.05,0,.08,0,.31,0,.61,.02,.92,.02,.03,0,.05,0,.08,0,.31,0,.61,.02,.92,.02,.03,0,.05,0,.08,0,.31,0,.61,.02,.92,.02,.03,0,.05,0,.08,0,.31,0,.61,.02,.92,.02,.03,0,.05,0,.08,0,.31,0,.61,.02,.92,.02,.03,0,.05,0,.08,0,.31,0,.61,.02,.92,.02,.03,0,.05,0,.08,0,.31,0,.61,.02,.92,.02,.03,0,.05,0,.08,0,.31,0,.61,.02,.92,.02,.03,0,.05,0,.08,0,.31,0,.61,.02,.92,.02,22.99,0,41.62-18.63,41.62-41.62,0-19.11-12.88-35.19-30.43-40.08Z"/>
  </g>
</svg>