<?xml version="1.0" encoding="UTF-8"?>
<svg id="_レイヤー_2" data-name="レイヤー 2" xmlns="http://www.w3.org/2000/svg" viewBox="0 0 71.38 61.18">
  <g id="_レイヤー_1-2" data-name="レイヤー 1">
    <ellipse cx="35.69" cy="30.59" rx="35.69" ry="30.59" style="fill: #e899a7; opacity: .26; stroke-width: 0px;"/>
    <path d="m33.51,23.32c-1.36-.02-1.62.15-2.28-.51-.66-.67-.41-.27-.13-1.79.17-.93,1.89-.62,2.56.04.67.67.85,2.27-.14,2.26Z" style="fill: #af7730; stroke: #7d4e22; stroke-miterlimit: 10;"/>
    <path d="m12.77,21.08c1.28.17,1.5.38,2.21-.18.71-.56.42-.2.34-1.71-.05-.92-1.71-.86-2.41-.31-.7.55-1.06,2.07-.13,2.2Z" style="fill: #af7730; stroke: #7d4e22; stroke-miterlimit: 10;"/>
    <path d="m31.81,41.46c3.84-1.5,7.3-1.3,7.71.46.4,1.77-2.42,4.42-6.29,5.91-3.84,1.47-7.24,1.24-7.62-.52-.38-1.75,2.38-4.36,6.2-5.85Z" style="fill: #af7730; stroke: #7d4e22; stroke-miterlimit: 10;"/>
    <path d="m26.46,51.78c-1.28-1.22-1.65-2.73-1-3.53.66-.82,2.03-.76,3.64.85,1.25,1.26,1.75,2.81,1.02,3.55-.73.74-2.37.35-3.66-.87Z" style="fill: #af7730; stroke: #7d4e22; stroke-miterlimit: 10;"/>
    <path d="m14.36,47.06c1.48-.84,2.77-.56,3.07.5.31,1.08-.36,2.52-2.29,3.54-1.5.79-2.88.63-3.09-.49-.22-1.12.82-2.71,2.31-3.54Z" style="fill: #af7730; stroke: #7d4e22; stroke-miterlimit: 10;"/>
    <path d="m36.45,32.87c-.77,5.2-2.75,7.14-14.05,5.98-10.92-1.12-14.59-3.36-14.28-8.81.31-5.43,3.74-11.72,14.61-10.98,11.21.77,14.54,8.22,13.71,13.81h0Z" style="fill: #deb183; stroke: #7d4e22; stroke-miterlimit: 10;"/>
    <path d="m16.8,23.22c.8-.4,1.71-.65,1.96-.01.25.64-.74.52-1.54.92s-1.32,1.09-1.57.44c-.25-.64.35-.96,1.15-1.36Z" style="fill: #673a1b; stroke: #673a1b; stroke-miterlimit: 10; stroke-width: .5px;"/>
    <path d="m11.46,35.84c-2.7,11.66,4.2,14.24,11.18,14.88,4.34.4,12.31-1.78,9.92-12.54" style="fill: #deb183; stroke: #7d4e22; stroke-miterlimit: 10;"/>
    <path d="m25.58,41.03c1.44-.91,2.89-.81,3.24.23s-.56,2.63-2.01,3.54c-1.45.91-2.89.8-3.23-.25s.56-2.62,2-3.53Z" style="fill: #af7730; stroke: #7d4e22; stroke-miterlimit: 10;"/>
    <path d="m26.72,40.79c-2.77,1.47-1.21,2.05-.86,2.52.35.47-.08,2.29,3.64-1.29.98-.94.68-.94.33-1.41-.35-.47-1.94-.44-3.11.18Z" style="fill: #deb183; stroke: #deb183; stroke-miterlimit: 10;"/>
    <path d="m11.46,26.99c1.31.17,2.32.95,2.25,1.73s-1.21,1.29-2.52,1.11-2.31-.95-2.23-1.73,1.2-1.28,2.51-1.11Z" style="fill: #e899a7; stroke-width: 0px;"/>
    <path d="m33.51,29.86c1.47.22,2.6,1.11,2.51,2-.09.89-1.36,1.43-2.83,1.21s-2.58-1.12-2.49-2c.09-.88,1.35-1.43,2.81-1.21Z" style="fill: #e899a7; stroke-width: 0px;"/>
    <path d="m18.62,32.11c-.01,3.69-.01,5.71,3.53,5.96,2.46.18,2.95-2.15,3.05-5.03" style="fill: #fff; stroke: #7d4e22; stroke-miterlimit: 10;"/>
    <path d="m19.5,28.65c.48-1.63,3.33-1.79,6.4-.35,3.1,1.46,5.24,3.99,4.76,5.65-.48,1.66-3.4,1.79-6.49.3s-5.14-3.98-4.66-5.61Z" style="fill: #d9a370; stroke: #7d4e22; stroke-miterlimit: 10;"/>
    <path d="m18.32,27.35c3.18-.8,5.96-.06,6.18,1.66.23,1.72-2.2,3.76-5.4,4.54-3.17.77-5.89,0-6.1-1.7-.21-1.7,2.16-3.71,5.32-4.5Z" style="fill: #d9a370; stroke: #7d4e22; stroke-miterlimit: 10;"/>
    <line x1="21.85" y1="32.59" x2="21.55" y2="38.14" style="fill: none; stroke: #7d4e22; stroke-miterlimit: 10;"/>
    <path d="m24.9,30.35c-.25,2.03-1.55,2.5-3.04,2.22s-2.6-1.18-2.35-3.2c.25-2.02,1.66-3.44,3.14-3.18s2.5,2.12,2.25,4.15Z" style="fill: #7d4e22; stroke-width: 0px;"/>
    <g>
      <g>
        <path d="m58.81,41.95c1.57-1.11,2.54-2.96,3.34-4.79.41-.93.82-1.9,1.53-2.6.21-.2.45-.38.71-.43s.57.06.7.32c.09.18.07.41.03.61-.09.45-.31.87-.53,1.27-1.66,2.94-4.38,5.16-5.49,8.37" style="fill: #fff; stroke-width: 0px;"/>
        <path d="m59.12,42.49c1.47-1.07,2.44-2.6,3.21-4.23.39-.82.7-1.68,1.18-2.46.15-.25.56-.98.89-1,.22-.02.14.03.08.28-.05.2-.13.39-.22.57-1.59,3.2-4.54,5.48-5.76,8.9-.27.76.94,1.09,1.21.33,1.08-3.01,3.6-5.17,5.22-7.86.39-.65.84-1.4.86-2.18s-.54-1.35-1.31-1.32c-1.59.06-2.39,2.31-2.92,3.49-.73,1.62-1.58,3.34-3.05,4.41-.64.47-.02,1.55.63,1.08h0Z" style="fill: #595757; stroke-width: 0px;"/>
      </g>
      <path d="m57.33,39.73c3.32,2.11,2.62,8.45,2.3,9.49-.78,2.55-3.45,1.98-3.57.66-.03-.33.3-.55.27-.86-.2-1.72-12.14-.69-12.12.89,0,.28.37.42.35.74-.05.73-2.12,1.46-3.06.25-.99-1.28-1-5.09.39-9.13" style="fill: #fff; stroke: #595757; stroke-miterlimit: 10;"/>
      <path d="m55.31,25.2c1.35-1.13,2.88-2.05,4.52-2.67l-.77-.44c.21.82.09,1.68-.02,2.51-.12.91-.22,1.79-.07,2.7.05.33.47.52.77.44.36-.1.49-.43.44-.77-.13-.84.03-1.71.14-2.55.12-.89.18-1.78-.05-2.66-.08-.3-.46-.56-.77-.44-1.86.71-3.55,1.72-5.07,2.99-.26.22-.22.66,0,.88.26.26.62.22.88,0h0Z" style="fill: #595757; stroke-width: 0px;"/>
      <g>
        <path d="m42.79,26.68c-1.71-.73-3.32-1.77-4.75-3.07.22,1.86.32,3.75.3,5.63" style="fill: #fff; stroke-width: 0px;"/>
        <path d="m43.1,26.14c-1.69-.73-3.25-1.74-4.62-2.97-.36-.32-1.13-.14-1.07.44.22,1.87.31,3.75.3,5.63,0,.8,1.24.81,1.25,0,.02-1.88-.08-3.76-.3-5.63l-1.07.44c1.45,1.3,3.08,2.39,4.88,3.17.31.13.67.09.86-.22.15-.26.09-.72-.22-.86h0Z" style="fill: #595757; stroke-width: 0px;"/>
      </g>
      <path d="m62.22,32.07c-.58,5.5-5.14,9.07-12.42,10.07-7.27,1-12.65-1.17-13.93-6.46-1.4-5.83,5.07-10.76,12.35-11.75,7.27-1,14.54,3.02,14,8.15Z" style="fill: #fff; stroke: #595757; stroke-miterlimit: 10;"/>
      <text/>
      <text/>
      <g>
        <path d="m40.8,39.77c.05,0,.1,0,.15,0,.09-.06.17-.12.22-.17.09-.1.14-.21.16-.33.05-.2.04-.4-.02-.59-.12-.37-.45-.65-.85-.79-.35-.12-.76.51-1.13.71.05.11.16.19.2.3l.97.82c.1.02.2.05.3.05Z" style="fill: #727171; stroke-width: 0px;"/>
        <path d="m40.8,41.27c1,.01,1.81-.76,2-1.72.17-.86-.08-1.75-.71-2.38-.55-.55-1.45-.99-2.24-.73-.37.12-.67.33-.96.58-.08.07-.15.14-.23.21-.05.05-.1.09-.15.14.18-.13.21-.15.08-.07-.67.41-.99,1.36-.54,2.05.09.14.21.27.3.4-.19-.28.08.14.14.2.02.02.05.04.07.06.14.13.29.25.44.37.43.36.83.74,1.41.82.77.11,1.65-.19,1.85-1.05.16-.71-.22-1.73-1.05-1.85-.1-.01-.2-.03-.3-.05l.66.39-.54-.46c-.1-.09-.21-.18-.31-.27-.03-.02-.06-.06-.09-.08-.08-.07-.03,0,.15.18-.27-.34-.32-.4-.14-.2l-.54,2.05c.25-.15.47-.34.68-.53.02-.02.19-.22.23-.21-.18.13-.2.16-.08.07-.33.19-.65.21-.94.08-.11-.05-.1-.04.02.02-.14-.12-.16-.14-.08-.07.19.22.06,0-.03-.1-.04-.12-.04-.11,0,.03-.03-.08-.04-.16-.02-.24.03-.2.16-.37.32-.48l.76-.2h-.15c-.78-.01-1.54.7-1.5,1.5s.66,1.49,1.5,1.5Z" style="fill: #727171; stroke-width: 0px;"/>
      </g>
      <path d="m59.35,22.56c1.48.33-.74,2.71.06,4.15,1,1.79,2.08,2.7.59,2.38s-5.6-.69-5.33-2.68,3.19-4.18,4.68-3.85Z" style="fill: #727171; stroke: #727171; stroke-miterlimit: 10; stroke-width: .25px;"/>
      <path d="m43.02,50.2c-.27.32-.6.81-.08.93s.99.2,1.23-.29-.08-.6-.33-1.29c-.14-.37-.42.16-.82.65Z" style="fill: #727171; stroke: #727171; stroke-miterlimit: 10; stroke-width: .25px;"/>
      <path d="m57.67,49.31c.36.36.84.9.25,1.09s-1.11.35-1.47-.21-.01-.72.16-1.56c.09-.46.51.14,1.07.68Z" style="fill: #727171; stroke: #727171; stroke-miterlimit: 10; stroke-width: .25px;"/>
      <ellipse cx="40.52" cy="33.43" rx="2.65" ry="1.59" transform="translate(-4.98 7.18) rotate(-9.55)" style="fill: #d599c2; opacity: .53; stroke-width: 0px;"/>
      <ellipse cx="57.34" cy="32.26" rx="2.65" ry="1.59" transform="translate(-4.56 9.96) rotate(-9.55)" style="fill: #d599c2; opacity: .53; stroke-width: 0px;"/>
      <g>
        <path d="m38.23,32.48c1.3-.41,2.68-.45,3.99-.11" style="fill: none; stroke: #3e3a39; stroke-miterlimit: 10; stroke-width: .25px;"/>
        <path d="m42.31,33.58c-1.13.03-2.25.24-3.33.64" style="fill: none; stroke: #3e3a39; stroke-miterlimit: 10; stroke-width: .25px;"/>
        <path d="m42.8,34.68c-1.17-.02-2.34.3-3.38.93" style="fill: none; stroke: #3e3a39; stroke-miterlimit: 10; stroke-width: .25px;"/>
      </g>
      <path d="m55.68,33.97c.99-.24,2.04-.12,2.96.34" style="fill: none; stroke: #3e3a39; stroke-miterlimit: 10; stroke-width: .25px;"/>
      <path d="m55,31.33c1.09-.26,2.28-.52,3.27.03" style="fill: none; stroke: #3e3a39; stroke-miterlimit: 10; stroke-width: .25px;"/>
      <path d="m55.19,32.88c1.19-.29,2.44-.22,3.6.19" style="fill: none; stroke: #3e3a39; stroke-miterlimit: 10; stroke-width: .25px;"/>
      <path d="m64.68,34.73c.06.14-.1.41-.35.55s-.41-.19-.47-.33.16-.24.41-.38.35.01.41.16Z" style="fill: #727171; stroke: #727171; stroke-miterlimit: 10; stroke-width: .25px;"/>
      <path d="m61.43,39.74c-.24-.03-.06-.39.1-.6s.29.06.38.19c.04.06-.07.14-.23.36s-.1.08-.25.06Z" style="fill: #727171; stroke: #727171; stroke-miterlimit: 10; stroke-width: .25px;"/>
      <path d="m42.31,42.35c.3.13.78.86.51,1.43s-.71.83-.98.6-.22-.51,0-1.11.1-1.08.47-.93Z" style="fill: #727171; stroke: #727171; stroke-miterlimit: 10; stroke-width: .25px;"/>
      <path d="m48.12,48.06c-.21-.08.9-1.71,1.94-2.02,1.31-.39,2.47,1.59,2.23,1.66-.25.07-.71.17-2.21.36-1.15.15-1.74.08-1.95,0Z" style="fill: #727171; stroke: #727171; stroke-miterlimit: 10; stroke-width: .25px;"/>
      <path d="m58.05,41.02c.72.75,1.79,2.89.78,3.48-.95.55-1.4,1.44-1.98.51s-.95-.51-.18-1.63.69-3.08,1.38-2.36Z" style="fill: #727171; stroke: #727171; stroke-miterlimit: 10; stroke-width: .25px;"/>
      <path d="m45.27,33.23c-.18.68-.26,1.42.01,2.09s.85,1.18,1.61,1.15c1.36-.07,2.49-1.74,2.1-3.03-.23-.77-1.38-.45-1.21.33.3,1.36,1.65,2.26,3.01,1.88s2.54-1.82,1.95-3.21c-.13-.31-.59-.38-.86-.22-.32.19-.36.54-.22.86.1.24-.16.61-.31.78-.25.29-.61.54-.99.62-.7.14-1.24-.38-1.38-1.03l-1.21.33c.15.5-.35,1.44-.92,1.45-.26,0-.39-.24-.45-.46-.11-.39-.04-.8.07-1.19.21-.78-1-1.11-1.21-.33h0Z" style="fill: #595757; stroke-width: 0px;"/>
    </g>
    <path d="m28.94,24.41c-.78-.45-1.67-.76-1.96-.14-.28.62.71.57,1.49,1.02s1.26,1.17,1.54.55c.28-.62-.3-.98-1.07-1.43Z" style="fill: #673a1b; stroke: #673a1b; stroke-miterlimit: 10; stroke-width: .5px;"/>
    <path d="m53.39,30.75l-1.86-.24c-.3-.04-.52-.36-.49-.72h0c.03-.36.31-.62.61-.58l1.86.24c.3.04.52.36.49.72h0c-.03.36-.31.62-.61.58Z" style="fill: #3e3a39; stroke: #3e3a39; stroke-miterlimit: 10; stroke-width: .25px;"/>
    <path d="m45.24,31.21l-1.77.72c-.29.12-.61-.06-.7-.4h0c-.1-.34.05-.71.34-.83l1.77-.72c.29-.12.61.06.7.4h0c.1.34-.05.71-.34.83Z" style="fill: #3e3a39; stroke: #3e3a39; stroke-miterlimit: 10; stroke-width: .25px;"/>
    <g>
      <path d="m54.5,10.87c.05.11-.06.21-.24.22s-.3-.07-.27-.18.14-.17.24-.18.22.03.27.14Z" style="fill: #898989; stroke-width: 0px;"/>
      <path d="m55.2,10.71c-.03.11-.19.17-.35.13s-.22-.15-.12-.25.24-.12.33-.09.17.1.14.21Z" style="fill: #898989; stroke-width: 0px;"/>
      <path d="m55.9,10.93c-.07.1-.25.13-.39.06s-.15-.19-.01-.26.27-.07.36-.03.13.13.05.23Z" style="fill: #898989; stroke-width: 0px;"/>
      <path d="m56.12,11.45c-.13.07-.31.05-.39-.06s-.01-.21.15-.24.29.02.34.08.03.15-.1.22Z" style="fill: #898989; stroke-width: 0px;"/>
      <path d="m54.9,11.06c-.06.03-.1.08-.11.12-.01.04-.05.07-.11.07-.12.01-.24.05-.31.09-.14.08-.16.23-.04.34s.33.13.48.05c.01.02.05.04.06.05.13.09.32.12.46.04s.2-.21.08-.32c-.01-.01-.07-.05-.08-.06,0,0,.05-.03.06-.03.08-.1.09-.25,0-.32-.13-.1-.34-.13-.48-.05Z" style="fill: #898989; stroke-width: 0px;"/>
    </g>
    <g>
      <path d="m52.71,16.06c-.11.07-.23,0-.27-.16s.02-.29.14-.3.21.08.23.17,0,.21-.1.28Z" style="fill: #898989; stroke-width: 0px;"/>
      <path d="m52.98,16.66c-.12,0-.21-.13-.2-.29s.12-.24.24-.18.16.19.15.28-.07.18-.2.19Z" style="fill: #898989; stroke-width: 0px;"/>
      <path d="m52.87,17.36c-.12-.04-.18-.2-.13-.34s.17-.18.27-.08.12.23.09.32-.11.15-.23.11Z" style="fill: #898989; stroke-width: 0px;"/>
      <path d="m52.36,17.7c-.1-.1-.1-.27,0-.37s.22-.07.28.08.03.27-.03.33-.15.07-.25-.03Z" style="fill: #898989; stroke-width: 0px;"/>
      <path d="m52.58,16.48s-.1-.07-.15-.07c-.04,0-.08-.03-.1-.08-.04-.11-.09-.21-.14-.26-.11-.11-.27-.09-.36.05s-.08.34.02.45c-.01.02-.03.05-.04.07-.07.14-.08.32.03.43s.25.13.35-.01c.01-.02.04-.07.05-.09,0,0,.04.04.04.04.12.05.28.02.33-.08.08-.15.08-.34-.03-.45Z" style="fill: #898989; stroke-width: 0px;"/>
    </g>
    <g>
      <path d="m53.64,15.44c.12.06.11.2,0,.31s-.26.13-.33.02-.03-.22.03-.29.18-.11.3-.05Z" style="fill: #898989; stroke-width: 0px;"/>
      <path d="m54.02,14.9c.06.11,0,.25-.15.31s-.27.02-.27-.12.08-.23.17-.27.2-.03.26.08Z" style="fill: #898989; stroke-width: 0px;"/>
      <path d="m54.69,14.65c.02.13-.08.25-.23.28s-.25-.06-.21-.19.14-.22.23-.24.18.02.21.15Z" style="fill: #898989; stroke-width: 0px;"/>
      <path d="m55.23,14.92c-.04.14-.18.22-.32.19s-.17-.16-.07-.28.22-.16.3-.14.14.1.1.24Z" style="fill: #898989; stroke-width: 0px;"/>
      <path d="m54.07,15.35c-.02.06-.01.12.01.16.02.04.01.08-.02.12-.07.08-.13.18-.15.25-.04.15.06.28.23.29s.33-.1.38-.24c.02,0,.06,0,.08,0,.16-.01.32-.09.36-.24s-.02-.28-.18-.29c-.02,0-.08,0-.1,0,0,0,.02-.05.02-.06-.02-.13-.12-.25-.24-.25-.17,0-.34.1-.38.25Z" style="fill: #898989; stroke-width: 0px;"/>
    </g>
    <g>
      <path d="m49.79,17.17c.04.11-.06.21-.22.23s-.28-.07-.25-.19.13-.18.23-.19.21.04.25.15Z" style="fill: #898989; stroke-width: 0px;"/>
      <path d="m50.44,17.02c-.03.12-.18.18-.33.13s-.2-.16-.11-.26.22-.12.31-.09.16.1.13.22Z" style="fill: #898989; stroke-width: 0px;"/>
      <path d="m51.09,17.26c-.07.11-.24.13-.37.06s-.14-.2,0-.27.26-.07.33-.02.12.13.04.24Z" style="fill: #898989; stroke-width: 0px;"/>
      <path d="m51.29,17.8c-.12.07-.29.04-.36-.07s0-.22.15-.25.27.02.31.09.03.16-.1.23Z" style="fill: #898989; stroke-width: 0px;"/>
      <path d="m50.16,17.37c-.05.03-.09.08-.11.13-.01.04-.05.07-.1.08-.11.01-.22.05-.29.09-.14.08-.15.24-.04.35s.31.14.44.06c.01.02.04.04.06.05.12.09.29.13.43.05s.19-.21.08-.33c-.01-.01-.06-.05-.08-.06,0,0,.05-.03.05-.03.08-.11.09-.26,0-.33-.12-.11-.31-.14-.45-.06Z" style="fill: #898989; stroke-width: 0px;"/>
    </g>
    <g>
      <path d="m54.42,13.06c.06.1-.01.21-.15.25s-.25-.02-.25-.14.08-.19.16-.22.18,0,.24.1Z" style="fill: #898989; stroke-width: 0px;"/>
      <path d="m54.95,12.81c0,.12-.12.2-.26.18s-.2-.12-.14-.23.17-.15.25-.14.15.07.15.19Z" style="fill: #898989; stroke-width: 0px;"/>
      <path d="m55.55,12.93c-.04.11-.18.16-.3.12s-.15-.16-.05-.26.21-.11.28-.08.12.11.08.22Z" style="fill: #898989; stroke-width: 0px;"/>
      <path d="m55.8,13.41c-.09.09-.24.09-.32,0s-.04-.21.08-.26.23-.02.28.03.05.15-.04.24Z" style="fill: #898989; stroke-width: 0px;"/>
      <path d="m54.77,13.2s-.06.09-.07.14c0,.04-.03.07-.07.09-.09.03-.18.08-.23.13-.1.1-.09.25.02.34s.29.08.39-.02c.01.01.04.03.06.04.12.07.27.08.37-.02s.12-.24.01-.32c-.01,0-.06-.04-.08-.04,0,0,.04-.03.04-.04.05-.11.03-.26-.05-.31-.12-.08-.29-.08-.39.02Z" style="fill: #898989; stroke-width: 0px;"/>
    </g>
    <g>
      <path d="m57.1,10.72c.04.1-.04.21-.18.24s-.24-.04-.22-.16.1-.19.18-.2.17.01.21.12Z" style="fill: #898989; stroke-width: 0px;"/>
      <path d="m57.65,10.5c-.02.11-.14.19-.28.16s-.18-.13-.1-.23.18-.14.26-.12.14.08.12.2Z" style="fill: #898989; stroke-width: 0px;"/>
      <path d="m58.2,10.66c-.06.11-.19.15-.31.09s-.12-.17-.02-.26.21-.09.28-.06.1.11.04.22Z" style="fill: #898989; stroke-width: 0px;"/>
      <path d="m58.38,11.16c-.1.08-.24.07-.3-.03s-.01-.21.12-.25.23,0,.26.05.03.15-.08.23Z" style="fill: #898989; stroke-width: 0px;"/>
      <path d="m57.42,10.87s-.07.08-.09.13c0,.04-.04.07-.08.08-.09.03-.19.07-.24.11-.11.09-.12.24-.03.34s.26.1.37.01c0,.01.04.03.05.04.11.07.25.09.36,0s.15-.23.05-.32c-.01-.01-.05-.04-.07-.05,0,0,.04-.03.04-.04.06-.11.07-.26,0-.32-.11-.09-.27-.1-.38,0Z" style="fill: #898989; stroke-width: 0px;"/>
    </g>
    <g>
      <path d="m51.5,10.25c.02.13-.1.21-.27.19s-.28-.13-.23-.25.17-.16.27-.15.21.08.23.2Z" style="fill: #898989; stroke-width: 0px;"/>
      <path d="m52.21,10.22c-.05.12-.22.15-.37.07s-.18-.2-.07-.29.25-.08.34-.04.15.14.1.25Z" style="fill: #898989; stroke-width: 0px;"/>
      <path d="m52.84,10.59c-.09.1-.27.09-.39-.01s-.1-.23.04-.28.28-.02.35.04.09.16,0,.26Z" style="fill: #898989; stroke-width: 0px;"/>
      <path d="m52.94,11.19c-.14.05-.3,0-.36-.14s.03-.23.2-.23.27.07.31.15,0,.17-.14.22Z" style="fill: #898989; stroke-width: 0px;"/>
      <path d="m51.85,10.53c-.06.02-.11.06-.13.11-.02.04-.07.06-.12.06-.12,0-.24,0-.32.03-.16.06-.2.22-.11.36s.29.2.45.15c0,.02.04.05.05.06.11.12.28.19.43.14s.24-.19.14-.33c-.01-.02-.05-.06-.07-.08,0,0,.06-.02.06-.02.1-.09.14-.25.07-.34-.11-.13-.3-.21-.45-.15Z" style="fill: #898989; stroke-width: 0px;"/>
    </g>
    <g>
      <path d="m54.79,7.1c.09.1.06.25-.07.33s-.26.04-.3-.1.02-.24.09-.29.19-.04.28.06Z" style="fill: #898989; stroke-width: 0px;"/>
      <path d="m55.25,6.68c.03.13-.06.25-.21.27s-.25-.08-.22-.22.12-.21.21-.22.18.04.22.17Z" style="fill: #898989; stroke-width: 0px;"/>
      <path d="m55.9,6.67c0,.14-.13.23-.27.21s-.21-.15-.14-.28.18-.17.26-.16.16.09.16.23Z" style="fill: #898989; stroke-width: 0px;"/>
      <path d="m56.33,7.15c-.07.13-.21.16-.33.08s-.12-.23,0-.32.23-.09.3-.04.1.15.04.28Z" style="fill: #898989; stroke-width: 0px;"/>
      <path d="m55.19,7.16c-.03.06-.03.12-.02.18,0,.04,0,.09-.04.12-.09.06-.16.14-.19.21-.07.14,0,.31.14.38s.32.02.39-.11c.02.01.05.02.07.03.15.04.31.02.38-.12s.05-.3-.1-.37c-.02,0-.07-.03-.09-.03,0,0,.03-.05.03-.05.01-.14-.06-.3-.16-.34-.15-.06-.33-.02-.4.12Z" style="fill: #898989; stroke-width: 0px;"/>
    </g>
    <g>
      <path d="m56.42,8.94c.09.08.06.2-.07.27s-.26.03-.3-.08.02-.2.09-.24.19-.04.28.05Z" style="fill: #898989; stroke-width: 0px;"/>
      <path d="m56.88,8.59c.03.11-.06.21-.21.22s-.25-.07-.22-.18.12-.18.21-.18.18.03.22.14Z" style="fill: #898989; stroke-width: 0px;"/>
      <path d="m57.54,8.58c0,.11-.13.19-.27.17s-.21-.12-.14-.23.18-.14.26-.13.16.08.16.19Z" style="fill: #898989; stroke-width: 0px;"/>
      <path d="m57.97,8.98c-.07.1-.21.13-.33.06s-.12-.19,0-.26.23-.07.3-.03.1.13.04.23Z" style="fill: #898989; stroke-width: 0px;"/>
      <path d="m56.83,8.99s-.03.1-.02.15c0,.04,0,.08-.04.1-.09.05-.16.12-.19.17-.07.11,0,.26.14.32s.32.02.39-.09c.02,0,.05.02.07.03.15.04.31.02.38-.1s.05-.25-.1-.31c-.02,0-.07-.02-.09-.03,0,0,.03-.04.03-.04.01-.12-.06-.25-.16-.28-.15-.05-.33-.02-.4.1Z" style="fill: #898989; stroke-width: 0px;"/>
    </g>
    <g>
      <path d="m52.84,8.29c.06.11,0,.22-.14.26s-.25-.03-.26-.16.07-.2.15-.22.18,0,.24.11Z" style="fill: #898989; stroke-width: 0px;"/>
      <path d="m53.36,8.04c0,.12-.11.2-.25.18s-.21-.13-.15-.24.16-.15.24-.14.16.08.16.2Z" style="fill: #898989; stroke-width: 0px;"/>
      <path d="m53.96,8.19c-.04.12-.17.17-.3.11s-.16-.18-.07-.27.2-.1.27-.07.13.12.09.23Z" style="fill: #898989; stroke-width: 0px;"/>
      <path d="m54.25,8.7c-.09.09-.23.08-.32-.02s-.06-.22.07-.27.23-.02.28.04.06.15-.03.25Z" style="fill: #898989; stroke-width: 0px;"/>
      <path d="m53.2,8.44s-.06.09-.06.14c0,.04-.03.08-.07.09-.09.03-.18.08-.22.13-.1.1-.08.26.05.36s.29.1.39,0c.01.01.04.03.06.04.12.07.28.09.37,0s.11-.24-.01-.34c-.01-.01-.06-.04-.08-.05,0,0,.04-.03.04-.04.04-.12.01-.27-.07-.33-.13-.09-.3-.1-.39,0Z" style="fill: #898989; stroke-width: 0px;"/>
    </g>
    <path d="m18.16,40.66c-1.19-1.19-2.63-1.4-3.21-.46s-.08,2.68,1.12,3.88c1.2,1.19,2.63,1.39,3.2.44s.08-2.67-1.11-3.86Z" style="fill: #af7730; stroke: #7d4e22; stroke-miterlimit: 10;"/>
    <path d="m17.12,40.18c2.35,2.02.7,2.26.24,2.64-.46.38-.47,2.25-3.24-2.03-.73-1.13-.44-1.06.01-1.44.46-.38,1.99-.02,2.99.83Z" style="fill: #deb183; stroke: #deb183; stroke-miterlimit: 10;"/>
    <g>
      <path d="m25.57,14.34c.04.21.07.4.11.58.1.5-.23.97-.73,1.06l-.28.05c-.5.08-.96-.26-1.03-.75-.02-.18-.05-.37-.09-.59l-.84-4.97-1.16.2c-.24.04-.42.07-.58.11-.49.1-.97-.23-1.05-.73h0c-.08-.5.26-.96.75-1.03.18-.02.37-.05.57-.09l4.32-.73c.25-.04.45-.08.64-.12.49-.1.96.23,1.05.73h0c.08.49-.25.96-.75,1.03-.19.03-.39.06-.64.1l-1.11.19.84,4.97Z" style="fill: #231815; stroke-width: 0px;"/>
      <path d="m37.99,12.23c0,2.64-1.61,4.39-4.04,4.39s-4.03-1.71-4.03-4.36,1.58-4.33,4.04-4.33,4.03,1.68,4.03,4.3Zm-2.08.02c0-1.62-.74-2.6-1.95-2.6s-1.97.99-1.97,2.6.75,2.64,1.97,2.64,1.95-1,1.95-2.64Z" style="fill: #231815; stroke-width: 0px;"/>
      <path d="m41.82,16.05c-.56-.11-.91-.65-.79-1.21.03-.14.06-.28.09-.43l1.03-5.31c.1-.53.17-.97.2-1.45.46.11.81.19,1.44.31l2.15.42c1.94.38,2.83,1.52,2.5,3.22s-1.66,2.57-3.56,2.2l-1.55-.3-.24,1.26c-.03.17-.06.33-.09.49-.09.55-.63.91-1.18.81h0Zm3.29-3.93c.69.13,1.16-.17,1.29-.85s-.18-1.1-.89-1.24l-.48-.09c-.54-.11-1.07.25-1.17.79l-.02.12c-.11.54.25,1.07.79,1.17l.48.09Z" style="fill: #231815; stroke-width: 0px;"/>
    </g>
  </g>
</svg>