<?xml version="1.0" encoding="UTF-8"?>
<svg id="_レイヤー_2" data-name="レイヤー 2" xmlns="http://www.w3.org/2000/svg" viewBox="0 0 110.31 72.15">
  <g id="_レイヤー_1-2" data-name="レイヤー 1">
    <g>
      <path d="m84.2,50.32c5.94-2.04,9.96-5.98,13.39-9.9,1.75-2,3.5-4.1,6.26-5.45.8-.39,1.71-.72,2.68-.75s2.03.31,2.4.94c.26.44.14.95-.07,1.41-.46,1-1.35,1.89-2.28,2.73-6.8,6.21-17.21,10.42-22.15,17.41" style="fill: #fff;"/>
      <path d="m84.53,51.53c3.89-1.37,7.31-3.59,10.31-6.41,2.8-2.63,4.99-6.14,8.22-8.26.89-.59,1.9-1.17,2.97-1.34.39-.06,1.07-.14,1.42.08.56.36.02.92-.32,1.35-1.2,1.52-2.9,2.77-4.44,3.92-3.2,2.39-6.63,4.45-9.93,6.7-3.51,2.4-6.91,5.02-9.41,8.49-.94,1.31,1.23,2.56,2.16,1.26,2.46-3.41,6-5.92,9.46-8.23,3.65-2.45,7.43-4.73,10.85-7.51,1.62-1.32,3.78-2.94,4.38-5.05s-1.37-3.48-3.3-3.57c-4.52-.22-7.97,4.08-10.66,7.1-3.46,3.89-7.39,7.28-12.36,9.04-1.51.53-.86,2.95.66,2.41h0Z" style="fill: #595757;"/>
    </g>
    <path d="m79.45,44.78c11.55,5.86,7.05,20.11,5.54,22.41-3.67,5.57-13.29,3.45-13.32.39,0-.77,1.29-1.16,1.25-1.88-.22-3.99-44.44-5.37-44.84-1.76-.07.63,1.23,1.08,1.06,1.8-.39,1.66-8.24,2.68-11.32-.38-3.26-3.24-2.1-11.95,4.24-20.73" style="fill: #fff; stroke: #595757; stroke-miterlimit: 10; stroke-width: 3px;"/>
    <path d="m75.45,11.62c5.94-2.41,12.16-4.04,18.5-4.97l-2.31-1.31c.48,1.8-.29,3.63-.89,5.31-.69,1.94-1.36,3.96-1.12,6.05.11,1.01.78,1.88,1.88,1.88.92,0,1.99-.86,1.88-1.88-.24-2.06.61-3.95,1.27-5.86.73-2.11,1.19-4.29.6-6.5-.28-1.07-1.31-1.46-2.31-1.31-6.34.93-12.56,2.56-18.5,4.97-.94.38-1.6,1.25-1.31,2.31.24.89,1.36,1.69,2.31,1.31h0Z" style="fill: #595757;"/>
    <g>
      <path d="m29.95,10.4c-6.06-2.21-11.65-5.09-16.52-8.51.23,4.33.02,8.66-.63,12.97" style="fill: #fff;"/>
      <path d="m30.45,8.6C24.77,6.51,19.35,3.74,14.38.28c-1.15-.8-2.89.26-2.82,1.62.21,4.16.04,8.34-.56,12.47-.15,1,.25,2.02,1.31,2.31.88.24,2.16-.3,2.31-1.31.66-4.47.92-8.95.7-13.46l-2.82,1.62c5.24,3.65,10.99,6.49,16.97,8.7.95.35,2.05-.39,2.31-1.31.29-1.05-.36-1.96-1.31-2.31h0Z" style="fill: #595757;"/>
    </g>
    <path d="m99.78,28.82c-3.82,12.39-21.69,19.11-48.75,19.1-27.06,0-46.17-6.63-49.23-19.13C-1.57,15.03,23.75,5.82,50.81,5.82c27.06,0,52.53,11.46,48.98,23Z" style="fill: #fff; stroke: #595757; stroke-miterlimit: 10; stroke-width: 3px;"/>
    <path d="m67.79,17.62c0,1.13-1.42,1.36-3.09,1.36s-3.03-.61-3.03-1.73,1.54-1.25,3.21-1.25,2.91.5,2.91,1.62Z" style="fill: #3e3a39; stroke: #3e3a39; stroke-miterlimit: 10; stroke-width: .25px;"/>
    <path d="m38.67,16.56c0,1.13-1.42,1.36-3.09,1.36s-3.03-.61-3.03-1.73,1.54-1.25,3.21-1.25,2.91.5,2.91,1.62Z" style="fill: #3e3a39; stroke: #3e3a39; stroke-miterlimit: 10; stroke-width: .25px;"/>
    <g>
      <path d="m18.72,40.51c.41.06.83.1,1.24.12.78-.23,1.52-.51,1.9-.72.79-.44,1.27-1.03,1.58-1.63.53-1.01.6-2.1.22-3.14-.75-2.04-3.27-3.79-6.44-4.82-2.78-.9-6.61,2.12-9.81,2.9.35.59,1.18,1.13,1.47,1.74l7.4,5.03c.8.17,1.58.38,2.44.51Z" style="fill: #727171;"/>
      <path d="m18.72,42.01c5.99.59,8.66-6.18,4.38-10.14-1.83-1.69-4.79-3.3-7.35-3.19-3.08.13-5.85,2.26-8.74,3.1-1.16.34-1.36,1.65-.66,2.51,1.6,1.97,3.37,3.07,5.47,4.49,2.3,1.56,3.74,2.68,6.5,3.18,1.89.34,2.7-2.55.8-2.89-3.89-.7-8.24-3.94-10.65-6.9l-.66,2.51c2.44-.72,4.67-2.32,7.15-2.83,1.73-.35,3.38.37,4.84,1.29.66.42,1.48.93,1.89,1.63.67.58.63,1.31-.1,2.17.04,1.81-.91,2.5-2.86,2.09-1.92-.19-1.91,2.81,0,3Z" style="fill: #727171;"/>
    </g>
    <path d="m91.12,6.52c5.86,1.05-3.14,5.88-.04,9.26,3.84,4.19,8.05,6.47,2.19,5.42s-22.16-2.75-20.97-7.12c1.19-4.37,12.96-8.62,18.83-7.57Z" style="fill: #727171; stroke: #727171; stroke-miterlimit: 10; stroke-width: .75px;"/>
    <path d="m23.1,63.53c-1.08.66-2.47,1.67-.56,2.09s3.59.78,4.62-.28-.1-1.39-.83-3.04c-.39-.9-1.59.23-3.23,1.23Z" style="fill: #727171; stroke: #727171; stroke-miterlimit: 10; stroke-width: .25px;"/>
    <path d="m78.46,66.78c1.23.93,2.81,2.32.58,2.57s-4.2.44-5.36-.95.16-1.64,1.06-3.51c.49-1.01,1.84.48,3.71,1.89Z" style="fill: #727171; stroke: #727171; stroke-miterlimit: 10; stroke-width: .25px;"/>
    <ellipse cx="19.56" cy="25.12" rx="9.76" ry="3.68" style="fill: #d599c2; opacity: .53;"/>
    <ellipse cx="81.76" cy="27.71" rx="9.76" ry="3.68" style="fill: #d599c2; opacity: .53;"/>
    <g>
      <path d="m11.42,22.84c4.86-.5,9.78-.2,14.53.97.78.19,1.11-1.01.33-1.21-4.85-1.19-9.89-1.52-14.86-1.01-.79.08-.8,1.33,0,1.25h0Z" style="fill: #3e3a39;"/>
      <path d="m26.07,25.4c-4.16-.28-8.33-.14-12.46.41-.79.1-.8,1.36,0,1.25,4.13-.55,8.3-.68,12.46-.41.8.05.8-1.2,0-1.25h0Z" style="fill: #3e3a39;"/>
      <path d="m27.53,28.07c-4.32-.41-8.71-.05-12.9,1.09-.78.21-.45,1.42.33,1.21,4.09-1.12,8.35-1.44,12.56-1.04.8.08.8-1.17,0-1.25h0Z" style="fill: #3e3a39;"/>
    </g>
    <path d="m75.14,31.73c3.61-.21,7.25.32,10.61,1.68.75.3,1.07-.91.33-1.21-3.45-1.39-7.23-1.94-10.94-1.72-.8.05-.8,1.3,0,1.25h0Z" style="fill: #3e3a39;"/>
    <path d="m73.43,25.47c3.86-.24,8.08-.58,11.72,1.01.73.32,1.37-.76.63-1.08-3.88-1.69-8.23-1.44-12.35-1.18-.8.05-.8,1.3,0,1.25h0Z" style="fill: #3e3a39;"/>
    <path d="m73.68,29.09c4.4-.26,8.81.23,13.02,1.54.77.24,1.1-.97.33-1.21-4.31-1.34-8.85-1.85-13.35-1.58-.8.05-.8,1.3,0,1.25h0Z" style="fill: #3e3a39;"/>
    <path d="m94.5,46.07c-.73.02.08-.72.73-1.18s.86.01,1.04.23c.08.1-.32.29-.96.76s-.37.18-.8.2Z" style="fill: #727171; stroke: #727171; stroke-miterlimit: 10; stroke-width: .25px;"/>
    <path d="m89.44,49.68c-.37.72-.09.34-.74.89s-1.33,1.07-1.02.7c.4-.48-.13-.8.62-1.32s1.32-.61,1.14-.27Z" style="fill: #727171; stroke: #727171; stroke-miterlimit: 10; stroke-width: .25px;"/>
    <path d="m23.48,46.48c1.08.39,2.6,2.22,1.44,3.42s-2.86,1.68-3.79,1.07-.67-1.23.33-2.53.7-2.44,2.02-1.97Z" style="fill: #727171; stroke: #727171; stroke-miterlimit: 10; stroke-width: .25px;"/>
    <path d="m39.53,60.32c-.76-.24,3.7-3.69,7.6-4.16,4.9-.58,8.72,4.25,7.82,4.35-.96.11-2.64.22-8.24.29-4.26.06-6.44-.25-7.18-.49Z" style="fill: #727171; stroke: #727171; stroke-miterlimit: 10; stroke-width: .25px;"/>
    <path d="m82.08,49.22c.7,2.92,0,8.93-3.79,7.57-3.54-1.27-6.31-.85-6.31-3.71s-1.74-3.04,2.29-3.11,7.15-3.53,7.82-.75Z" style="fill: #727171; stroke: #727171; stroke-miterlimit: 10; stroke-width: .25px;"/>
    <g>
      <ellipse cx="49.82" cy="41.95" rx="14.43" ry="17.11" transform="translate(-5.62 76.12) rotate(-71.75)" style="fill: #f8b62d;"/>
      <ellipse cx="49.46" cy="41.41" rx="12.36" ry="14.68" transform="translate(-5.36 75.41) rotate(-71.75)" style="fill: #f39800;"/>
      <path d="m66.76,45.13c-.22,7.3-8.16,12.35-17.75,11.28s-17.18-7.85-16.97-15.15c.22-7.3,34.93-3.43,34.72,3.87Z" style="fill: #fff100; opacity: .24;"/>
      <path d="m57.84,44.34c-.43.16-.86.31-1.28.49-.52.21-1,.43-1.43.63-.46.21-.67-.26-.68-.27-.09-.23-.05-.53.26-.66h.03c.19-.09.35-.14.59-.24.18-.07.21-.24.13-.42-1.28-2.79-4.08-8.84-4.08-8.84-.13-.27-.23-.36-.27-.34-.1.04-.12.35-.09.61.25,2.54.63,8.15.72,10.65.01.53-.29.96-.71,1.13-.37.15-.85.09-1.23-.33-1.07-1.18-5.5-6.37-6.96-8.07-.15-.19-.33-.34-.43-.3-.18.07.5,1.89,3.32,9.52.07.18.22.27.42.19.24-.1.33-.16.56-.25.41-.19.66.18.7.27.1.24.03.54-.27.67h-.03c-.43.17-.85.33-1.28.5-.5.21-.98.42-1.41.62-.46.21-.67-.26-.68-.27-.09-.23-.05-.53.26-.66h.03c.19-.09.3-.12.54-.22.16-.07.21-.22.15-.42-1.02-2.9-2.46-7.16-3.27-9.46v-.03c-.09-.2-.25-.26-.42-.2-.26.11-.3.14-.51.23-.46.21-.69-.19-.71-.26-.09-.23-.03-.52.3-.66h.03c.39-.16.64-.24.92-.35.19-.08.4-.18.69-.3h.03c.49-.21,1.1-.06,1.56.47,1.96,2.26,5,5.79,6.84,7.87.14.15.28.21.39.16.08-.03.14-.15.14-.36-.1-2.34-.4-7.59-.66-10.46-.05-.59.23-1.2.74-1.41h.03c.28-.13.49-.2.69-.28.29-.12.53-.24.91-.41h.03c.31-.14.56.02.66.27.09.23.04.52-.25.64-.21.09-.28.1-.54.2-.13.05-.21.24-.13.42.03.07.19.42,4.35,9.07.1.19.22.25.4.18.24-.1.31-.13.53-.24.46-.21.67.26.68.27.09.23.05.53-.26.66h-.03Z" style="fill: #fff; stroke: #fff; stroke-miterlimit: 10;"/>
      <path d="m58.3,43.27c-.43.16-.86.32-1.28.49-.52.21-1,.43-1.44.63-.47.21-.67-.25-.68-.27-.09-.23-.05-.53.26-.66h.03c.2-.09.35-.14.59-.24.18-.07.21-.24.13-.41-1.27-2.76-4.05-8.75-4.05-8.75-.13-.27-.22-.36-.27-.34-.1.04-.12.35-.09.6.24,2.52.59,8.08.66,10.56,0,.53-.29.95-.72,1.13-.37.15-.86.09-1.24-.32-1.07-1.16-5.49-6.29-6.94-7.97-.15-.18-.33-.34-.43-.3-.18.07.49,1.88,3.28,9.43.07.18.22.27.42.19.24-.1.34-.16.56-.25.42-.19.66.18.7.26.1.24.03.53-.28.66h-.03c-.43.17-.86.33-1.28.5-.5.21-.99.43-1.42.62-.46.21-.67-.25-.68-.27-.09-.23-.05-.53.26-.66h.03c.2-.09.3-.12.54-.22.16-.07.21-.22.15-.42-1.01-2.87-2.43-7.1-3.23-9.37v-.03c-.09-.19-.25-.26-.42-.19-.26.11-.3.14-.51.23-.47.21-.69-.19-.71-.25-.09-.23-.02-.52.3-.65h.03c.4-.16.65-.24.92-.36.2-.08.4-.18.69-.3h.03c.49-.21,1.1-.07,1.56.46,1.95,2.24,4.99,5.72,6.82,7.78.14.15.28.21.39.16.08-.03.15-.15.14-.36-.08-2.33-.36-7.53-.6-10.38-.05-.58.23-1.19.75-1.41h.03c.28-.13.49-.2.69-.28.29-.12.53-.24.91-.41h.03c.31-.14.57.02.67.26.09.23.04.51-.25.63-.21.09-.28.1-.54.21-.13.05-.21.24-.13.41.03.06.19.41,4.31,8.98.1.19.22.25.4.18.24-.1.31-.13.53-.24.46-.21.67.25.68.27.09.23.05.53-.26.66h-.03Z" style="fill: #c9a063; stroke: #c9a063; stroke-miterlimit: 10;"/>
    </g>
    <path d="m39.74,21.51c-1.17,1.38-2.17,3.09-1.67,4.96s2.18,2.95,3.97,3.27c2.95.52,9.06-1.14,8.67-5.11-.15-1.57-2.53-1.64-2.5,0,.06,4.11,4.7,5.98,8.2,6.05,2.89.06,9.72-1.28,8.59-5.54-.41-1.55-2.83-.89-2.41.66.26.98-2.03,1.7-2.69,1.9-1.26.37-2.58.54-3.89.46-1.95-.11-5.26-1.1-5.29-3.54h-2.5c.19,1.96-3.68,2.81-5.08,2.73-.91-.05-2.08-.32-2.53-1.22-.51-1.03.26-2.11.91-2.87,1.03-1.22-.73-3-1.77-1.77h0Z" style="fill: #595757;"/>
  </g>
</svg>