<?xml version="1.0" encoding="UTF-8"?>
<svg id="_レイヤー_2" data-name="レイヤー 2" xmlns="http://www.w3.org/2000/svg" viewBox="0 0 123.46 109.19">
  <g id="_レイヤー_1-2" data-name="レイヤー 1">
    <path d="m117.17,83.49c.53,2.87-5.94,6.82-14.31,8.79-8.22,1.93-15.22,1.22-15.75-1.55-.54-2.78,5.59-6.65,13.82-8.68,8.38-2.06,15.71-1.43,16.24,1.45Z" style="fill: #727171; isolation: isolate; opacity: .38; stroke-width: 0px;"/>
    <path d="m79.68,92.34c1.66-1.76,6.58-.54,10.93,2.72,4.32,3.24,6.41,7.23,4.71,8.92-1.69,1.68-6.49.49-10.78-2.68-4.32-3.2-6.52-7.21-4.86-8.97Z" style="fill: #727171; isolation: isolate; opacity: .38; stroke-width: 0px;"/>
    <path d="m48.09,98.93c1.09,2.1-1.51,5.65-5.79,7.92-4.27,2.26-8.6,2.4-9.67.3-1.07-2.09,1.5-5.62,5.75-7.89,4.27-2.28,8.62-2.43,9.71-.33Z" style="fill: #727171; isolation: isolate; opacity: .38; stroke-width: 0px;"/>
    <path d="m93.81,10.6c-5.1.41-6,1.04-8.69-.8-2.68-1.84-1.61-.69-1.04-5.49.35-2.93,6.87-2.59,9.58-.76,2.71,1.84,3.88,6.74.15,7.05Z" style="fill: #af7730; stroke: #7d4e22; stroke-miterlimit: 10; stroke-width: 2px;"/>
    <path d="m15.56,10.86c4.84.09,5.72.64,8.2-1.31,2.48-1.97,1.51-.78.74-5.43-.47-2.84-6.65-2.06-9.12-.11-2.46,1.96-3.34,6.79.18,6.86Z" style="fill: #af7730; stroke: #7d4e22; stroke-miterlimit: 10; stroke-width: 2px;"/>
    <path d="m93.23,70.37c13.91-5.99,26.92-6.57,28.96-1.24,2.05,5.35-7.72,14.55-21.73,20.49-13.9,5.9-26.68,6.34-28.63,1.04-1.95-5.29,7.59-14.35,21.4-20.3Z" style="fill: #af7730; stroke: #7d4e22; stroke-miterlimit: 10; stroke-width: 2px;"/>
    <path d="m76.36,104.2c-5.16-3.32-6.99-7.88-4.82-10.61,2.21-2.78,7.35-3.07,13.88,1.38,5.07,3.47,7.4,8.11,4.87,10.67-2.51,2.55-8.76,1.9-13.93-1.44Z" style="fill: #af7730; stroke: #7d4e22; stroke-miterlimit: 10; stroke-width: 2px;"/>
    <path d="m29.7,93.78c5.29-3.11,10.18-2.69,11.64.47,1.48,3.23-.57,7.95-7.48,11.77-5.38,2.96-10.58,2.96-11.72-.45-1.15-3.39,2.25-8.67,7.56-11.79Z" style="fill: #af7730; stroke: #7d4e22; stroke-miterlimit: 10; stroke-width: 2px;"/>
    <path d="m107.75,42.44c-1.8,17.14-8.8,23.99-51.38,23.14C15.21,64.76,1,58.43,1,40.58,1,22.8,12.54,1.4,53.46,1.01c42.18-.41,56.24,23,54.3,41.43h0Z" style="fill: #deb183; stroke: #7d4e22; stroke-miterlimit: 10; stroke-width: 2px;"/>
    <path d="m73.1,18.95c.77-1.69,3.34-2.06,5.76-.82,2.42,1.24,3.76,3.62,2.99,5.32-.77,1.7-3.36,2.06-5.78.81-2.41-1.24-3.74-3.62-2.98-5.31Z" style="fill: #673a1b; stroke: #673a1b; stroke-miterlimit: 10;"/>
    <path d="m29.63,17.79c2.19-1.33,4.66-1.07,5.51.6.85,1.67-.23,4.11-2.43,5.44-2.19,1.33-4.66,1.06-5.51-.61-.85-1.67.24-4.09,2.42-5.43Z" style="fill: #673a1b; stroke: #673a1b; stroke-miterlimit: 10;"/>
    <path d="m17.84,60.12c-6.55,37.08,17.63,42.55,43.92,42.11,16.33-.27,43.64-8.5,31.48-41.02" style="fill: #deb183; stroke: #7d4e22; stroke-miterlimit: 10; stroke-width: 2px;"/>
    <path d="m28.74,68.91c2.14-2.8,7.36-1.98,11.66,1.87,4.32,3.86,6.09,9.29,3.93,12.12-2.16,2.82-7.42,1.95-11.72-1.93-4.29-3.86-6.01-9.25-3.87-12.06Z" style="fill: #af7730; stroke: #7d4e22; stroke-miterlimit: 10; stroke-width: 2px;"/>
    <path d="m37.07,68.87c8.57,6.62,3.06,7.86,1.66,9.33-1.39,1.47-.83,8.12-11.46-6.4-2.79-3.81-1.81-3.64-.42-5.1,1.39-1.46,6.62-.6,10.21,2.18h0Z" style="fill: #deb183; stroke: #deb183; stroke-miterlimit: 10;"/>
    <g>
      <path d="m68.91,71.84c4.5-3.85,9.9-4.64,12.05-1.76,2.16,2.89.23,8.36-4.3,12.21-4.52,3.84-9.9,4.6-12.03,1.71-2.12-2.88-.21-8.32,4.28-12.16Z" style="fill: #af7730; stroke: #7d4e22; stroke-miterlimit: 10; stroke-width: 2px;"/>
      <path d="m72.84,70.24c-8.87,6.55-2.67,7.11-.97,8.26,1.7,1.15,1.68,6.98,12.22-6.66,2.78-3.59,1.69-3.36-.01-4.5-1.7-1.14-7.48.13-11.24,2.9Z" style="fill: #deb183; stroke: #deb183; stroke-miterlimit: 10; stroke-width: 2px;"/>
    </g>
    <path d="m41.32,46.27c1.57,11.38,2.47,17.6,15.77,16.55,9.25-.74,10.03-8.17,9.14-17.11" style="fill: #fff; stroke: #7d4e22; stroke-miterlimit: 10; stroke-width: 2px;"/>
    <path d="m49.18,32.92c1.73-5.09,12.44-5.66,24.02-1.25,11.69,4.46,19.81,12.3,18.05,17.47-1.76,5.18-12.72,5.66-24.38,1.11-11.55-4.5-19.43-12.25-17.69-17.34Z" style="fill: #d9a370; stroke: #7d4e22; stroke-miterlimit: 10; stroke-width: 2px;"/>
    <path d="m37.82,31.78c11.54-3.9,22.18-2.87,23.7,2.34,1.52,5.23-6.72,12.61-18.33,16.46-11.52,3.82-21.97,2.69-23.42-2.47-1.45-5.16,6.6-12.45,18.05-16.32Z" style="fill: #d9a370; stroke: #7d4e22; stroke-miterlimit: 10; stroke-width: 2px;"/>
    <line x1="54.77" y1="45.39" x2="54.57" y2="62.71" style="fill: none; stroke: #7d4e22; stroke-miterlimit: 10;"/>
    <path d="m64.57,37.56c.02,6.4-4.59,8.56-10.26,8.53-5.65-.03-10.21-2.21-10.22-8.56,0-6.35,4.54-11.5,10.18-11.51,5.66-.02,10.29,5.15,10.3,11.54Z" style="fill: #7d4e22; stroke-width: 0px;"/>
    <path d="m96.02,30.29c5.57.16,10.05,2.55,9.98,5.34-.06,2.79-4.65,4.91-10.23,4.73-5.55-.18-9.98-2.57-9.91-5.35.07-2.77,4.61-4.89,10.16-4.73Z" style="fill: #e899a7; stroke-width: 0px;"/>
    <path d="m12.4,32.29c5.57.16,10.05,2.55,9.98,5.34-.06,2.79-4.65,4.91-10.23,4.73-5.55-.18-9.98-2.57-9.91-5.35.07-2.77,4.61-4.89,10.16-4.73Z" style="fill: #e899a7; stroke-width: 0px;"/>
  </g>
</svg>